<mxfile host="app.diagrams.net" agent="Mozilla/5.0 (Windows NT 10.0; Win64; x64) AppleWebKit/537.36 (KHTML, like Gecko) Chrome/131.0.0.0 Safari/537.36" version="26.0.5">
  <diagram name="Page-1" id="7LmilUbCZrtvkC6KmX1s">
    <mxGraphModel dx="1662" dy="972" grid="0" gridSize="10" guides="1" tooltips="1" connect="1" arrows="1" fold="1" page="0" pageScale="1" pageWidth="827" pageHeight="1169" math="0" shadow="0">
      <root>
        <mxCell id="0" />
        <mxCell id="1" parent="0" />
        <mxCell id="gl0wbrxxGjY8cw9Bw19a-1" value="Users" style="swimlane;fontStyle=0;childLayout=stackLayout;horizontal=1;startSize=30;horizontalStack=0;resizeParent=1;resizeParentMax=0;resizeLast=0;collapsible=1;marginBottom=0;whiteSpace=wrap;html=1;" vertex="1" parent="1">
          <mxGeometry x="-189" y="27" width="180" height="144" as="geometry" />
        </mxCell>
        <mxCell id="gl0wbrxxGjY8cw9Bw19a-2" value="id, PK" style="text;strokeColor=none;fillColor=none;align=left;verticalAlign=middle;spacingLeft=4;spacingRight=4;overflow=hidden;points=[[0,0.5],[1,0.5]];portConstraint=eastwest;rotatable=0;whiteSpace=wrap;html=1;" vertex="1" parent="gl0wbrxxGjY8cw9Bw19a-1">
          <mxGeometry y="30" width="180" height="30" as="geometry" />
        </mxCell>
        <mxCell id="gl0wbrxxGjY8cw9Bw19a-3" value="username, Text Not Null Unique" style="text;strokeColor=none;fillColor=none;align=left;verticalAlign=middle;spacingLeft=4;spacingRight=4;overflow=hidden;points=[[0,0.5],[1,0.5]];portConstraint=eastwest;rotatable=0;whiteSpace=wrap;html=1;" vertex="1" parent="gl0wbrxxGjY8cw9Bw19a-1">
          <mxGeometry y="60" width="180" height="30" as="geometry" />
        </mxCell>
        <mxCell id="gl0wbrxxGjY8cw9Bw19a-4" value="email, Text Not Null Unique" style="text;strokeColor=none;fillColor=none;align=left;verticalAlign=middle;spacingLeft=4;spacingRight=4;overflow=hidden;points=[[0,0.5],[1,0.5]];portConstraint=eastwest;rotatable=0;whiteSpace=wrap;html=1;" vertex="1" parent="gl0wbrxxGjY8cw9Bw19a-1">
          <mxGeometry y="90" width="180" height="27" as="geometry" />
        </mxCell>
        <mxCell id="gl0wbrxxGjY8cw9Bw19a-13" value="password, Text Not Null" style="text;strokeColor=none;fillColor=none;align=left;verticalAlign=middle;spacingLeft=4;spacingRight=4;overflow=hidden;points=[[0,0.5],[1,0.5]];portConstraint=eastwest;rotatable=0;whiteSpace=wrap;html=1;" vertex="1" parent="gl0wbrxxGjY8cw9Bw19a-1">
          <mxGeometry y="117" width="180" height="27" as="geometry" />
        </mxCell>
        <mxCell id="gl0wbrxxGjY8cw9Bw19a-5" value="Books" style="swimlane;fontStyle=0;childLayout=stackLayout;horizontal=1;startSize=30;horizontalStack=0;resizeParent=1;resizeParentMax=0;resizeLast=0;collapsible=1;marginBottom=0;whiteSpace=wrap;html=1;" vertex="1" parent="1">
          <mxGeometry x="64" y="25" width="178" height="180" as="geometry" />
        </mxCell>
        <mxCell id="gl0wbrxxGjY8cw9Bw19a-6" value="id, PK" style="text;strokeColor=none;fillColor=none;align=left;verticalAlign=middle;spacingLeft=4;spacingRight=4;overflow=hidden;points=[[0,0.5],[1,0.5]];portConstraint=eastwest;rotatable=0;whiteSpace=wrap;html=1;" vertex="1" parent="gl0wbrxxGjY8cw9Bw19a-5">
          <mxGeometry y="30" width="178" height="30" as="geometry" />
        </mxCell>
        <mxCell id="gl0wbrxxGjY8cw9Bw19a-7" value="title, Text Not Null" style="text;strokeColor=none;fillColor=none;align=left;verticalAlign=middle;spacingLeft=4;spacingRight=4;overflow=hidden;points=[[0,0.5],[1,0.5]];portConstraint=eastwest;rotatable=0;whiteSpace=wrap;html=1;" vertex="1" parent="gl0wbrxxGjY8cw9Bw19a-5">
          <mxGeometry y="60" width="178" height="30" as="geometry" />
        </mxCell>
        <mxCell id="gl0wbrxxGjY8cw9Bw19a-8" value="author_id, FK" style="text;strokeColor=none;fillColor=none;align=left;verticalAlign=middle;spacingLeft=4;spacingRight=4;overflow=hidden;points=[[0,0.5],[1,0.5]];portConstraint=eastwest;rotatable=0;whiteSpace=wrap;html=1;" vertex="1" parent="gl0wbrxxGjY8cw9Bw19a-5">
          <mxGeometry y="90" width="178" height="30" as="geometry" />
        </mxCell>
        <mxCell id="gl0wbrxxGjY8cw9Bw19a-14" value="genre, Text Not Null" style="text;strokeColor=none;fillColor=none;align=left;verticalAlign=middle;spacingLeft=4;spacingRight=4;overflow=hidden;points=[[0,0.5],[1,0.5]];portConstraint=eastwest;rotatable=0;whiteSpace=wrap;html=1;" vertex="1" parent="gl0wbrxxGjY8cw9Bw19a-5">
          <mxGeometry y="120" width="178" height="30" as="geometry" />
        </mxCell>
        <mxCell id="gl0wbrxxGjY8cw9Bw19a-15" value="puplished_year, Inther Not Null" style="text;strokeColor=none;fillColor=none;align=left;verticalAlign=middle;spacingLeft=4;spacingRight=4;overflow=hidden;points=[[0,0.5],[1,0.5]];portConstraint=eastwest;rotatable=0;whiteSpace=wrap;html=1;" vertex="1" parent="gl0wbrxxGjY8cw9Bw19a-5">
          <mxGeometry y="150" width="178" height="30" as="geometry" />
        </mxCell>
        <mxCell id="gl0wbrxxGjY8cw9Bw19a-9" value="Authors" style="swimlane;fontStyle=0;childLayout=stackLayout;horizontal=1;startSize=30;horizontalStack=0;resizeParent=1;resizeParentMax=0;resizeLast=0;collapsible=1;marginBottom=0;whiteSpace=wrap;html=1;" vertex="1" parent="1">
          <mxGeometry x="315" y="25" width="126" height="120" as="geometry" />
        </mxCell>
        <mxCell id="gl0wbrxxGjY8cw9Bw19a-10" value="id, PK" style="text;strokeColor=none;fillColor=none;align=left;verticalAlign=middle;spacingLeft=4;spacingRight=4;overflow=hidden;points=[[0,0.5],[1,0.5]];portConstraint=eastwest;rotatable=0;whiteSpace=wrap;html=1;" vertex="1" parent="gl0wbrxxGjY8cw9Bw19a-9">
          <mxGeometry y="30" width="126" height="30" as="geometry" />
        </mxCell>
        <mxCell id="gl0wbrxxGjY8cw9Bw19a-11" value="name, Text Not Null" style="text;strokeColor=none;fillColor=none;align=left;verticalAlign=middle;spacingLeft=4;spacingRight=4;overflow=hidden;points=[[0,0.5],[1,0.5]];portConstraint=eastwest;rotatable=0;whiteSpace=wrap;html=1;" vertex="1" parent="gl0wbrxxGjY8cw9Bw19a-9">
          <mxGeometry y="60" width="126" height="30" as="geometry" />
        </mxCell>
        <mxCell id="gl0wbrxxGjY8cw9Bw19a-12" value="country, Text Not Null" style="text;strokeColor=none;fillColor=none;align=left;verticalAlign=middle;spacingLeft=4;spacingRight=4;overflow=hidden;points=[[0,0.5],[1,0.5]];portConstraint=eastwest;rotatable=0;whiteSpace=wrap;html=1;" vertex="1" parent="gl0wbrxxGjY8cw9Bw19a-9">
          <mxGeometry y="90" width="126" height="30" as="geometry" />
        </mxCell>
        <mxCell id="gl0wbrxxGjY8cw9Bw19a-17" value="" style="edgeStyle=none;curved=1;rounded=0;orthogonalLoop=1;jettySize=auto;html=1;fontSize=12;startSize=8;endSize=8;entryX=0.997;entryY=0.12;entryDx=0;entryDy=0;exitX=0.057;exitY=0.92;exitDx=0;exitDy=0;entryPerimeter=0;exitPerimeter=0;" edge="1" parent="1" source="gl0wbrxxGjY8cw9Bw19a-10" target="gl0wbrxxGjY8cw9Bw19a-8">
          <mxGeometry relative="1" as="geometry" />
        </mxCell>
        <mxCell id="gl0wbrxxGjY8cw9Bw19a-18" value="" style="edgeStyle=none;curved=1;rounded=0;orthogonalLoop=1;jettySize=auto;html=1;fontSize=12;startSize=8;endSize=8;" edge="1" parent="1" source="gl0wbrxxGjY8cw9Bw19a-3" target="gl0wbrxxGjY8cw9Bw19a-8">
          <mxGeometry relative="1" as="geometry" />
        </mxCell>
        <mxCell id="gl0wbrxxGjY8cw9Bw19a-19" value="&lt;span style=&quot;color: rgb(46, 52, 77); font-family: Gilroy-SemiBold;&quot;&gt;BookBazaar DataBasw&lt;/span&gt;" style="text;strokeColor=none;fillColor=none;html=1;align=center;verticalAlign=middle;whiteSpace=wrap;rounded=0;fontSize=16;" vertex="1" parent="1">
          <mxGeometry x="44.5" y="-51" width="217" height="44" as="geometry" />
        </mxCell>
      </root>
    </mxGraphModel>
  </diagram>
</mxfile>
